<svg viewBox="0 0 22 17" xmlns="http://www.w3.org/2000/svg">
<path d="M20 0.5C18.89 0.15 17.67 0 16.5 0C14.55 0 12.45 0.4 11 1.5C9.55 0.4 7.45 0 5.5 0C3.55 0 1.45 0.4 0 1.5V16.15C0 16.4 0.25 16.65 0.5 16.65C0.6 16.65 0.65 16.6 0.75 16.6C2.1 15.95 4.05 15.5 5.5 15.5C7.45 15.5 9.55 15.9 11 17C12.35 16.15 14.8 15.5 16.5 15.5C18.15 15.5 19.85 15.8 21.25 16.55C21.35 16.6 21.4 16.6 21.5 16.6C21.75 16.6 22 16.35 22 16.1V1.5C21.4 1.05 20.75 0.75 20 0.5ZM20 14C18.9 13.65 17.7 13.5 16.5 13.5C14.8 13.5 12.35 14.15 11 15V3.5C12.35 2.65 14.8 2 16.5 2C17.7 2 18.9 2.15 20 2.5V14Z"/>
<path d="M16.5 6C17.38 6 18.23 6.09 19 6.26V4.74C18.21 4.59 17.36 4.5 16.5 4.5C14.8 4.5 13.26 4.79 12 5.33V6.99C13.13 6.35 14.7 6 16.5 6Z"/>
<path d="M12 7.98997V9.64997C13.13 9.00997 14.7 8.65997 16.5 8.65997C17.38 8.65997 18.23 8.74997 19 8.91997V7.39997C18.21 7.24997 17.36 7.15997 16.5 7.15997C14.8 7.15997 13.26 7.45997 12 7.98997Z"/>
<path d="M16.5 9.83002C14.8 9.83002 13.26 10.12 12 10.66V12.32C13.13 11.68 14.7 11.33 16.5 11.33C17.38 11.33 18.23 11.42 19 11.59V10.07C18.21 9.91002 17.36 9.83002 16.5 9.83002Z"/>
</svg>
