<svg aria-hidden="true" style="position: absolute; width: 0; height: 0; overflow: hidden;" version="1.1" xmlns="http://www.w3.org/2000/svg" xmlns:xlink="http://www.w3.org/1999/xlink">
<defs>
<symbol id="icon-google" viewBox="0 0 32 32">
<path fill="#ffc107" style="fill: var(--color1, #ffc107)" d="M29.074 13.389h-1.074v-0.055h-12v5.333h7.535c-1.099 3.105-4.053 5.333-7.535 5.333-4.418 0-8-3.582-8-8s3.582-8 8-8c2.039 0 3.895 0.769 5.307 2.026l3.771-3.771c-2.381-2.219-5.567-3.588-9.079-3.588-7.363 0-13.333 5.97-13.333 13.333s5.97 13.333 13.333 13.333c7.363 0 13.333-5.97 13.333-13.333 0-0.894-0.092-1.767-0.259-2.611z"></path>
<path fill="#ff3d00" style="fill: var(--color2, #ff3d00)" d="M4.204 9.794l4.381 3.213c1.185-2.935 4.056-5.007 7.415-5.007 2.039 0 3.895 0.769 5.307 2.026l3.771-3.771c-2.381-2.219-5.567-3.588-9.079-3.588-5.121 0-9.563 2.891-11.796 7.127z"></path>
<path fill="#4caf50" style="fill: var(--color3, #4caf50)" d="M16 29.333c3.444 0 6.573-1.318 8.939-3.461l-4.127-3.492c-1.339 1.014-3.003 1.62-4.813 1.62-3.468 0-6.413-2.211-7.522-5.297l-4.348 3.35c2.207 4.318 6.688 7.281 11.87 7.281z"></path>
<path fill="#1976d2" style="fill: var(--color4, #1976d2)" d="M29.074 13.389h-1.074v-0.055h-12v5.333h7.535c-0.528 1.491-1.487 2.777-2.725 3.714 0.001-0.001 0.001-0.001 0.002-0.001l4.127 3.492c-0.292 0.265 4.394-3.205 4.394-9.871 0-0.894-0.092-1.767-0.259-2.611z"></path>
</symbol>
<symbol id="icon-like" viewBox="0 0 32 32">
<path d="M12 28h12c1.107 0 2.053-0.667 2.453-1.627l4.027-9.4c0.12-0.307 0.187-0.627 0.187-0.973v-2.667c0-1.467-1.2-2.667-2.667-2.667h-8.413l1.267-6.093 0.040-0.427c0-0.547-0.227-1.053-0.587-1.413l-1.413-1.4-8.787 8.787c-0.48 0.48-0.773 1.147-0.773 1.88v13.333c0 1.467 1.2 2.667 2.667 2.667zM12 12l5.787-5.787-1.787 7.12h12v2.667l-4 9.333h-12v-13.333zM1.333 12h5.333v16h-5.333v-16z"></path>
</symbol>
<symbol id="icon-quotes" viewBox="0 0 43 32">
<path fill="#ff6b08" style="fill: var(--color6, #ff6b08)" d="M37.293 0.856l1 1.555c-6.886 4.516-10.328 9.033-10.328 13.549 0 2.295 1 3.628 2.999 3.998l4.664-4.331c1.481 0.518 2.813 1.481 3.998 2.888 1.259 1.333 1.888 3.073 1.888 5.22s-0.852 3.998-2.554 5.553c-1.703 1.481-3.961 2.221-6.775 2.221-2.74 0-5.035-0.926-6.886-2.776-1.777-1.925-2.665-4.553-2.665-7.885 0-7.256 4.887-13.919 14.66-19.991zM16.414 0.856l1 1.555c-6.886 4.516-10.328 9.033-10.328 13.549 0 2.295 1 3.628 2.999 3.998l4.664-4.331c1.481 0.518 2.813 1.481 3.998 2.888 1.259 1.333 1.888 3.073 1.888 5.22s-0.852 3.998-2.554 5.553c-1.703 1.481-3.961 2.221-6.775 2.221-2.739 0-5.035-0.926-6.886-2.776-1.777-1.925-2.665-4.553-2.665-7.885 0-7.256 4.887-13.919 14.66-19.991z"></path>
</symbol>
<symbol id="icon-Vector-side" viewBox="0 0 16 32">
<path fill="#ff6b08" style="fill: var(--color6, #ff6b08)" d="M15.662 15.122l-13.703-14.76c-0.449-0.483-1.176-0.482-1.624 0.003s-0.447 1.27 0.002 1.754l12.887 13.881-12.888 13.881c-0.449 0.484-0.45 1.269-0.002 1.754 0.225 0.243 0.519 0.365 0.813 0.365s0.587-0.121 0.811-0.362l13.703-14.76c0.216-0.232 0.338-0.549 0.338-0.878s-0.122-0.645-0.338-0.878z"></path>
</symbol>
<symbol id="icon-Vector-enter" viewBox="0 0 27 32">
<path fill="#ff6b08" style="fill: var(--color6, #ff6b08)" d="M22.907 22.883c-0.063-0.305-0.311-0.447-0.493-0.638-1.316-1.39-2.653-2.768-3.972-4.159-0.562-0.59-0.611-1.221-0.168-1.669s1.062-0.409 1.609 0.162c2.108 2.186 4.21 4.378 6.306 6.576 0.644 0.676 0.636 1.149-0.013 1.831-2.078 2.181-4.162 4.355-6.251 6.524-0.576 0.598-1.141 0.644-1.609 0.171s-0.398-1.085 0.158-1.671c1.303-1.373 2.618-2.734 3.922-4.104 0.183-0.192 0.424-0.34 0.499-0.644-0.206-0.211-0.461-0.111-0.687-0.111-6.87-0.007-13.743-0.011-20.619-0.011-1.303 0-1.579-0.296-1.579-1.654 0-7.27 0-14.543 0-21.817-0.016-0.254-0.009-0.51 0.022-0.763 0.111-0.563 0.453-0.915 1.015-0.905s0.893 0.365 0.997 0.929c0.025 0.227 0.031 0.457 0.016 0.685 0 6.866 0.010 13.731-0.012 20.589 0 0.648 0.177 0.799 0.774 0.796 6.456-0.021 12.912-0.012 19.368-0.017 0.249 0.012 0.505 0.101 0.718-0.101z"></path>
</symbol>
<symbol id="icon-flag" viewBox="0 0 28 32">
<path fill="#a6abb9" style="fill: var(--color5, #a6abb9)" d="M13.854 3.765l0.753 3.765h9.864v11.294h-6.325l-0.753-3.765h-13.628v-11.294h10.089zM16.941 0h-16.941v32h3.765v-13.176h10.541l0.753 3.765h13.176v-18.824h-10.541l-0.753-3.765z"></path>
</symbol>
<symbol id="icon-Star" viewBox="0 0 34 32">
<path fill="none" stroke="#a6abb9" style="stroke: var(--color5, #a6abb9)" stroke-linejoin="miter" stroke-linecap="butt" stroke-miterlimit="4" stroke-width="2" d="M17 3.236l3.090 9.511h10l-8.090 5.878 0.225 0.691 2.866 8.82-8.090-5.878-8.090 5.878 3.090-9.511-8.090-5.878h10l3.090-9.511z"></path>
</symbol>
<symbol id="icon-Star-full" viewBox="0 0 34 32">
<path fill="#FF6B08" stroke="#FF6B08" style="stroke: var(--color5, #FF6B08)" stroke-linejoin="miter" stroke-linecap="butt" stroke-miterlimit="4" stroke-width="2" d="M17 3.236l3.090 9.511h10l-8.090 5.878 0.225 0.691 2.866 8.82-8.090-5.878-8.090 5.878 3.090-9.511-8.090-5.878h10l3.090-9.511z"></path>
</symbol>
<symbol id="icon-arrow-back" viewBox="0 0 64 32">
<path fill="#ff6b08" style="fill: var(--color6, #ff6b08)" d="M0.733 17.827c0.001 0.001 0.001 0.002 0.002 0.002l13.063 13.419c0.979 1.005 2.561 1.002 3.536-0.009s0.97-2.644-0.008-3.65l-8.771-9.009h52.945c1.381 0 2.5-1.155 2.5-2.581s-1.119-2.581-2.5-2.581h-52.945l8.77-9.010c0.979-1.005 0.982-2.639 0.008-3.65s-2.557-1.014-3.536-0.009l-13.063 13.419c-0.001 0.001-0.001 0.002-0.002 0.002-0.979 1.009-0.976 2.648 0 3.653z"></path>
</symbol>
<symbol id="icon-Plus" viewBox="0 0 32 32">
<path fill="#fff" style="fill: var(--color7, #fff)" d="M30.4 14.4h-12.8v-12.8c0-0.883-0.717-1.6-1.6-1.6s-1.6 0.717-1.6 1.6v12.8h-12.8c-0.883 0-1.6 0.717-1.6 1.6s0.717 1.6 1.6 1.6h12.8v12.8c0 0.883 0.717 1.6 1.6 1.6s1.6-0.717 1.6-1.6v-12.8h12.8c0.883 0 1.6-0.717 1.6-1.6s-0.717-1.6-1.6-1.6z"></path>
</symbol>
<symbol id="icon-calendar" viewBox="0 0 32 32">
<path fill="#a6abb9" style="fill: var(--color5, #a6abb9)" d="M28.25 2.5h-1.5v-2.5h-2.5v2.5h-16.5v-2.5h-2.5v2.5h-1.5c-2.068 0-3.75 1.682-3.75 3.75v22c0 2.068 1.682 3.75 3.75 3.75h24.5c2.068 0 3.75-1.682 3.75-3.75v-22c0-2.068-1.682-3.75-3.75-3.75zM29.5 28.25c0 0.689-0.561 1.25-1.25 1.25h-24.5c-0.689 0-1.25-0.561-1.25-1.25v-16.5h27v16.5zM29.5 9.25h-27v-3c0-0.689 0.561-1.25 1.25-1.25h1.5v2.5h2.5v-2.5h16.5v2.5h2.5v-2.5h1.5c0.689 0 1.25 0.561 1.25 1.25v3z"></path>
<path fill="#a6abb9" style="fill: var(--color5, #a6abb9)" d="M7.25 14.375h-2.5v2.5h2.5v-2.5z"></path>
<path fill="#a6abb9" style="fill: var(--color5, #a6abb9)" d="M12.25 14.375h-2.5v2.5h2.5v-2.5z"></path>
<path fill="#a6abb9" style="fill: var(--color5, #a6abb9)" d="M17.25 14.375h-2.5v2.5h2.5v-2.5z"></path>
<path fill="#a6abb9" style="fill: var(--color5, #a6abb9)" d="M22.25 14.375h-2.5v2.5h2.5v-2.5z"></path>
<path fill="#a6abb9" style="fill: var(--color5, #a6abb9)" d="M27.25 14.375h-2.5v2.5h2.5v-2.5z"></path>
</symbol>
<symbol id="icon-delete" viewBox="0 0 25 32">
<path   d="M19.556 10.667v17.778h-14.222v-17.778h14.222zM16.889 0h-8.889l-1.778 1.778h-6.222v3.556h24.889v-3.556h-6.222l-1.778-1.778zM23.111 7.111h-21.333v21.333c0 1.956 1.6 3.556 3.556 3.556h14.222c1.956 0 3.556-1.6 3.556-3.556v-21.333z"></path>
</symbol>
<symbol id="icon-home" viewBox="0 0 34 32">
<path fill="#a6abb9" style="fill: var(--color5, #a6abb9)" d="M16.842 5.433l8.421 8.070v14.006h-3.368v-10.76h-10.105v10.76h-3.368v-14.006l8.421-8.070zM16.842 0.609l-16.842 16.14h5.053v14.347h10.105v-10.76h3.368v10.76h10.105v-14.347h5.053l-16.842-16.14z"></path>
</symbol>
<symbol id="icon-book" viewBox="0 0 37 32">
<path  d="M33.684 1.505c-1.869-0.628-3.924-0.897-5.895-0.897-3.284 0-6.821 0.717-9.263 2.69-2.442-1.973-5.979-2.69-9.263-2.69s-6.821 0.717-9.263 2.69v26.273c0 0.448 0.421 0.897 0.842 0.897 0.168 0 0.253-0.090 0.421-0.090 2.274-1.166 5.558-1.973 8-1.973 3.284 0 6.821 0.717 9.263 2.69 2.274-1.524 6.4-2.69 9.263-2.69 2.779 0 5.642 0.538 8 1.883 0.168 0.090 0.253 0.090 0.421 0.090 0.421 0 0.842-0.448 0.842-0.897v-26.183c-1.011-0.807-2.105-1.345-3.368-1.793zM33.684 25.715c-1.853-0.628-3.874-0.897-5.895-0.897-2.863 0-6.989 1.166-9.263 2.69v-20.624c2.274-1.524 6.4-2.69 9.263-2.69 2.021 0 4.042 0.269 5.895 0.897v20.624z"></path>
<path  d="M27.789 11.368c1.482 0 2.914 0.161 4.211 0.466v-2.726c-1.331-0.269-2.762-0.43-4.211-0.43-2.863 0-5.457 0.52-7.579 1.489v2.977c1.903-1.148 4.547-1.775 7.579-1.775z"></path>
<path  d="M20.211 14.938v2.977c1.903-1.148 4.547-1.775 7.579-1.775 1.482 0 2.914 0.161 4.211 0.466v-2.726c-1.331-0.269-2.762-0.43-4.211-0.43-2.863 0-5.457 0.538-7.579 1.489z"></path>
<path  d="M27.789 18.237c-2.863 0-5.457 0.52-7.579 1.488v2.977c1.903-1.148 4.547-1.776 7.579-1.776 1.482 0 2.914 0.161 4.211 0.466v-2.726c-1.331-0.287-2.762-0.43-4.211-0.43z"></path>
</symbol>
<symbol id="icon-checkbox-empty" viewBox="0 0 32 32">
<path fill="none" stroke="#a6abb9" style="stroke: var(--color5, #a6abb9)" stroke-linejoin="miter" stroke-linecap="butt" stroke-miterlimit="4" stroke-width="2.1333" d="M2.133 1.067h27.733c0.589 0 1.067 0.478 1.067 1.067v27.733c0 0.589-0.478 1.067-1.067 1.067h-27.733c-0.589 0-1.067-0.478-1.067-1.067v-27.733c0-0.589 0.478-1.067 1.067-1.067z"></path>
</symbol>
<symbol id="icon-checkbox-checked" viewBox="0 0 32 32">
<path fill="none" stroke="#ff6b08" style="stroke: var(--color6, #ff6b08)" stroke-linejoin="miter" stroke-linecap="butt" stroke-miterlimit="4" stroke-width="2.1333" d="M2.133 1.067h27.733c0.589 0 1.067 0.478 1.067 1.067v27.733c0 0.589-0.478 1.067-1.067 1.067h-27.733c-0.589 0-1.067-0.478-1.067-1.067v-27.733c0-0.589 0.478-1.067 1.067-1.067z"></path>
<path fill="#ff6b08" style="fill: var(--color6, #ff6b08)" d="M29.762 11.078l-15.872 14.426c-0.14 0.127-0.366 0.127-0.506 0l-9.012-8.191c-0.139-0.127-0.139-0.332 0-0.459l2.19-1.99c0.14-0.127 0.366-0.127 0.506 0l6.57 5.971 13.43-12.206c0.14-0.127 0.366-0.127 0.506 0l2.189 1.99c0.14 0.127 0.14 0.332 0 0.46z"></path>
</symbol>
<symbol enable-background="new 0 0 91 91" id="redactor" version="1.1" xml:space="preserve" xmlns="http://www.w3.org/2000/svg" xmlns:xlink="http://www.w3.org/1999/xlink" viewBox="0 0 91 91"><g><path d="M36.682,45.397l-0.002,0.001c-0.002,0.002-0.002,0.004-0.002,0.004c-0.137,0.139-0.24,0.307-0.324,0.486   c-0.023,0.045-0.039,0.086-0.057,0.133c-0.018,0.046-0.043,0.088-0.057,0.137l-4.008,14.826c-0.158,0.588,0.01,1.215,0.439,1.646   c0.324,0.323,0.758,0.498,1.201,0.498c0.148,0,0.299-0.019,0.443-0.06l14.256-3.853c0.094,0.016,0.184,0.055,0.279,0.055   c0.436,0,0.871-0.166,1.203-0.498l23.086-23.088c1.23-1.231,1.91-2.868,1.91-4.609c0-1.741-0.68-3.378-1.91-4.609l-4.154-4.154   c-2.461-2.463-6.76-2.459-9.217,0L36.682,45.397L36.682,45.397z M62.174,24.715c1.174-1.177,3.23-1.176,4.408,0.001l4.154,4.153   c0.59,0.589,0.914,1.372,0.914,2.206s-0.324,1.616-0.914,2.206l-1.25,1.25l-8.564-8.563L62.174,24.715z M58.518,28.372l8.564,8.563   l-18.23,18.231l-8.566-8.564L58.518,28.372z M39.285,50.407l6.137,6.138l-9.135,2.471l2.469-9.136L39.285,50.407z"></path><rect height="15.087" transform="matrix(0.7072 0.707 -0.707 0.7072 45.0547 -26.2009)" width="3.4" x="52.459" y="33.749"></rect><path d="M20.961,74.166h45.74c3.596,0,6.518-2.925,6.518-6.52V44.628H69.82v23.019c0,1.721-1.398,3.119-3.119,3.119H22.662V25.662   h29.012v-3.4H20.961c-0.939,0-1.699,0.761-1.699,1.7v48.503C19.262,73.404,20.021,74.166,20.961,74.166z"></path></g></symbol>
<symbol id="icon-polygon" viewBox="0 0 13 6">
<path d="M6.5 6L0.870834 0.750001L12.1292 0.75L6.5 6Z" fill="#242A37"/></symbol>
</defs>
</svg>
<svg width="0" height="0" class="hidden"></svg>
